# xmcd CD database file
#
# Track frame offsets:
#	150
#	14804
#	31335
#	56132
#	77775
#	96456
#	113204
#	131776
#	151238
#	176141
#	199353
#	216364
#	231816
#	260879
#
# Disc length: 3719 seconds
#
# Revision: 0
# Processed by: cddbd v1.5.2PL0 Copyright (c) Steve Scherf et al.
# Submitted via: CDex 1.51
#
DISCID=d80e850e
DTITLE=Brax 02 - feel good winter lounge 04
DYEAR=2004
DGENRE=Jazz
TTITLE0=Jazzamor, Fly me to the Moon
TTITLE1=Bent, Beautiful otherness
TTITLE2=Electribe 101, Talking with myself
TTITLE3=Schiller mit Kim Sanders, Dancing with loneliness
TTITLE4=Stephane de Lucia, Trippin
TTITLE5=Majestic 12, Superstar
TTITLE6=Can 7, The Promise
TTITLE7=York, I need you
TTITLE8=Valez, Crystal
TTITLE9=SDL, Walk on
TTITLE10=Max Melvin, Low_Fi_City
TTITLE11=Rank I feat. Shanokee, Such is life
TTITLE12=Nova June, Another Try
TTITLE13=Wax Poetic feat. Norah Jones, Angels
EXTD=YEAR: 2004
EXTT0=
EXTT1=
EXTT2=
EXTT3=
EXTT4=
EXTT5=
EXTT6=
EXTT7=
EXTT8=
EXTT9=
EXTT10=
EXTT11=
EXTT12=
EXTT13=
PLAYORDER=
